<svg xmlns="http://www.w3.org/2000/svg" width="680" height="300" viewBox="0 0 680 300" role="img" aria-labelledby="title desc">
  <title id="title">SSA expression and Lengauer-Tarjan dominator tree</title>
  <desc id="desc">The expression exp(a times x) minus 1 is written as top-down SSA. The dominator tree on the left points from values toward their common dominators; the value %2 dominates %0 and %1.</desc>
  <style>
    text { font-family: -apple-system, BlinkMacSystemFont, "Segoe UI", sans-serif; fill: #333; }
    .heading { font-size: 17px; font-weight: 600; }
    .code { font-family: ui-monospace, SFMono-Regular, Menlo, Consolas, monospace; font-size: 16px; }
    .tree-label { font-family: ui-monospace, SFMono-Regular, Menlo, Consolas, monospace; font-size: 16px; }
    .edge { fill: none; stroke: #666; stroke-width: 2; marker-end: url(#arrow); }
    .node { fill: #fff; stroke: #555; stroke-width: 2; }
    .critical { fill: #d9edf7; stroke: #204a87; stroke-width: 3; }
  </style>
  <defs>
    <marker id="arrow" viewBox="0 0 10 10" refX="8" refY="5" markerWidth="6" markerHeight="6" orient="auto">
      <path d="M 0 0 L 10 5 L 0 10 z" fill="#666" />
    </marker>
  </defs>

  <text x="42" y="34" class="heading">Dominator tree</text>
  <text x="265" y="34" class="heading">SSA</text>

  <!-- Curved edges point toward the common dominator below. -->
  <path d="M 100 91 C 100 105 100 113 100 125" class="edge" />
  <path d="M 130 110 C 118 110 110 118 100 125" class="edge" />
  <path d="M 100 156 C 100 165 100 168 100 175" class="edge" />
  <path d="M 100 206 C 100 217 100 225 100 235" class="edge" />
  <path d="M 130 215 C 118 215 110 225 100 235" class="edge" />

  <rect x="75" y="60" width="50" height="31" rx="15" class="node" />
  <text x="100" y="82" text-anchor="middle" class="tree-label">%0</text>
  <rect x="130" y="95" width="50" height="31" rx="15" class="node" />
  <text x="155" y="117" text-anchor="middle" class="tree-label">%1</text>
  <rect x="75" y="125" width="50" height="31" rx="15" class="critical" />
  <text x="100" y="147" text-anchor="middle" class="tree-label">%2</text>
  <rect x="75" y="175" width="50" height="31" rx="15" class="node" />
  <text x="100" y="197" text-anchor="middle" class="tree-label">%3</text>
  <rect x="130" y="200" width="50" height="31" rx="15" class="node" />
  <text x="155" y="222" text-anchor="middle" class="tree-label">%4</text>
  <rect x="75" y="235" width="50" height="31" rx="15" class="node" />
  <text x="100" y="257" text-anchor="middle" class="tree-label">%5</text>

  <text x="265" y="82" class="code">%0 = a</text>
  <text x="265" y="117" class="code">%1 = x</text>
  <text x="265" y="152" class="code">%2 = (* %0 %1)</text>
  <text x="265" y="187" class="code">%3 = (exp %2)</text>
  <text x="265" y="222" class="code">%4 = 1</text>
  <text x="265" y="257" class="code">%5 = (- %3 %4)</text>
</svg>
